Coordinates
version=1
nRows=16
nColumns=63
inDegrees=yes

Units are S.I. units (second, meters, Newtons, ...)
If the header above contains a line with 'inDegrees', this indicates whether rotational values are in degrees (yes) or radians (no).

endheader
time	pelvis_tilt	pelvis_list	pelvis_rotation	pelvis_tx	pelvis_ty	pelvis_tz	hip_flexion_r	hip_adduction_r	hip_rotation_r	knee_angle_r	knee_angle_r_beta	ankle_angle_r	subtalar_angle_r	mtp_angle_r	hip_flexion_l	hip_adduction_l	hip_rotation_l	knee_angle_l	knee_angle_l_beta	ankle_angle_l	subtalar_angle_l	mtp_angle_l	L5_S1_Flex_Ext	L5_S1_Lat_Bending	L5_S1_axial_rotation	L4_L5_Flex_Ext	L4_L5_Lat_Bending	L4_L5_axial_rotation	L3_L4_Flex_Ext	L3_L4_Lat_Bending	L3_L4_axial_rotation	L2_L3_Flex_Ext	L2_L3_Lat_Bending	L2_L3_axial_rotation	L1_L2_Flex_Ext	L1_L2_Lat_Bending	L1_L2_axial_rotation	L1_T12_Flex_Ext	L1_T12_Lat_Bending	L1_T12_axial_rotation	Abs_r3	Abs_r2	Abs_r1	Abs_t1	Abs_t2	neck_flexion	neck_bending	neck_rotation	arm_flex_r	arm_add_r	arm_rot_r	elbow_flex_r	pro_sup_r	wrist_flex_r	wrist_dev_r	arm_flex_l	arm_add_l	arm_rot_l	elbow_flex_l	pro_sup_l	wrist_flex_l	wrist_dev_l
0.000000	1.023783	-4.176969	89.552371	0.219034	0.851724	0.648364	-1.295602	2.506646	-5.628610	11.227766	0.195961	37.549391	-0.777758	0.000000	-4.847660	-2.266445	29.302159	-0.273646	-0.004776	35.748020	-16.263716	0.000000	0.037613	0.577101	-0.492740	0.069852	0.767545	-0.523536	0.061795	1.403164	-0.523536	0.042988	1.403164	-0.431147	0.034928	1.176825	-0.400351	0.021492	0.893930	-0.369555	0.268669	6.528286	-2.740470	0.000000	0.000000	26.584149	-2.337816	-3.317486	28.320211	-20.972623	83.826557	59.714155	90.921140	3.785336	4.114369	14.929033	-12.780339	56.816935	58.179324	88.279020	-0.737343	3.481013
0.025000	0.863655	-4.448373	90.112227	0.217456	0.851036	0.650525	-0.767339	2.296651	-4.940216	11.762355	0.205292	37.387883	-1.963453	0.000000	-4.045430	-1.946108	27.730927	0.522998	0.009128	36.729321	-13.540899	0.000000	0.046585	0.564670	-0.693536	0.086514	0.751011	-0.736882	0.076535	1.372938	-0.736882	0.053242	1.372938	-0.606844	0.043259	1.151475	-0.563498	0.026619	0.874674	-0.520152	0.332754	6.387658	-3.857241	0.000000	0.000000	26.585818	-1.852926	-2.750962	28.126570	-20.301931	83.466683	58.929072	89.353083	1.908785	3.100780	14.907428	-12.626068	54.916880	57.979932	86.393477	-1.691121	2.787616
0.050000	0.772713	-4.625816	90.597459	0.216231	0.850485	0.651957	-0.426455	2.180531	-4.427494	12.137381	0.211837	37.275887	-2.854391	0.000000	-3.461545	-1.748286	26.303655	1.183031	0.020648	37.562044	-11.134678	0.000000	0.051889	0.556974	-0.866771	0.096364	0.740776	-0.920944	0.085249	1.354227	-0.920944	0.059304	1.354227	-0.758424	0.048184	1.135782	-0.704251	0.029650	0.862753	-0.650078	0.370640	6.300604	-4.820718	0.000000	0.000000	26.580270	-1.421046	-2.283260	27.887055	-19.747325	82.983592	58.319050	88.323975	0.671325	2.410581	14.643903	-12.462005	53.062785	57.951633	84.845642	-2.507170	2.402816
0.075000	0.742353	-4.720699	91.020182	0.215316	0.850056	0.652750	-0.251358	2.147295	-4.077253	12.369148	0.215882	37.206279	-3.484606	0.000000	-3.070979	-1.658904	25.022950	1.716977	0.029967	38.256592	-9.027487	0.000000	0.054129	0.553394	-1.015172	0.100524	0.736014	-1.078621	0.088929	1.345522	-1.078621	0.061865	1.345522	-0.888276	0.050265	1.128481	-0.824827	0.030930	0.857207	-0.761379	0.386641	6.260101	-5.646084	0.000000	0.000000	26.570139	-1.041483	-1.904705	27.605373	-19.297276	82.395743	57.865156	87.745963	-0.007778	2.000175	14.170820	-12.293219	51.263494	58.069759	83.612051	-3.197458	2.274196
0.100000	0.763970	-4.744425	91.392508	0.214669	0.849737	0.652990	-0.220455	2.185954	-3.876301	12.473962	0.217712	37.171937	-3.888133	0.000000	-2.848708	-1.663887	23.891419	2.135360	0.037269	38.823366	-7.201758	0.000000	0.053910	0.553308	-1.141472	0.100116	0.735899	-1.212814	0.088569	1.345313	-1.212814	0.061614	1.345313	-0.998788	0.050061	1.128305	-0.927446	0.030804	0.857074	-0.856104	0.385073	6.259128	-6.348525	0.000000	0.000000	26.558058	-0.713545	-1.605626	27.285230	-18.940256	81.721599	57.548456	87.531198	-0.209258	1.825966	13.520537	-12.124779	49.527853	58.309642	82.669239	-3.773955	2.349340
0.125000	0.828960	-4.708395	91.726554	0.214250	0.849513	0.652766	-0.312153	2.285517	-3.811448	12.468128	0.217610	37.165738	-4.099007	0.000000	-2.769708	-1.749156	22.911667	2.448703	0.042738	39.272768	-5.639924	0.000000	0.051835	0.556095	-1.248400	0.096263	0.739607	-1.326425	0.085159	1.352091	-1.326425	0.059242	1.352091	-1.092350	0.048134	1.133990	-1.014325	0.029618	0.861392	-0.936300	0.370251	6.290663	-6.943226	0.000000	0.000000	26.546662	-0.436537	-1.376348	26.930333	-18.664735	80.979622	57.350015	87.591829	-0.013847	1.844358	12.725415	-11.961753	47.864708	58.646613	81.993744	-4.248630	2.575830
0.150000	0.928717	-4.624009	92.034433	0.214017	0.849372	0.652166	-0.504861	2.434993	-3.869501	12.367952	0.215861	37.180559	-4.151263	0.000000	-2.808953	-1.900637	22.086301	2.667528	0.046557	39.615201	-4.324418	0.000000	0.048508	0.561136	-1.338686	0.090085	0.746311	-1.422354	0.079694	1.364346	-1.422354	0.055440	1.364346	-1.171350	0.045045	1.144269	-1.087683	0.027718	0.869200	-1.004015	0.346490	6.347684	-7.445371	0.000000	0.000000	26.538586	-0.209767	-1.207200	26.544390	-18.459184	80.188271	57.250901	87.840004	0.497720	2.011753	11.817814	-11.809211	46.282903	59.056004	81.562099	-4.633451	2.901251
0.175000	1.054637	-4.502670	92.328260	0.213926	0.849299	0.651278	-0.776985	2.623393	-4.037269	12.189739	0.212751	37.209276	-4.078935	0.000000	-2.941419	-2.104252	21.417928	2.802360	0.048910	39.861067	-3.237673	0.000000	0.044535	0.567809	-1.415061	0.082705	0.755186	-1.503503	0.073166	1.380571	-1.503503	0.050899	1.380571	-1.238179	0.041355	1.157876	-1.149737	0.025447	0.879536	-1.061296	0.318106	6.423169	-7.870147	0.000000	0.000000	26.536463	-0.032542	-1.088509	26.131106	-18.312075	79.366009	57.232178	88.187872	1.244711	2.284556	10.830093	-11.672221	44.791284	59.513147	81.350842	-4.940387	3.273186
0.200000	1.198117	-4.355779	92.620149	0.213938	0.849281	0.650191	-1.106932	2.839726	-4.301560	11.949794	0.208563	37.244767	-3.916057	0.000000	-3.142082	-2.345927	20.909153	2.863721	0.049981	40.020767	-2.362120	0.000000	0.040518	0.575493	-1.480256	0.075245	0.765406	-1.572771	0.066566	1.399255	-1.572771	0.046308	1.399255	-1.295224	0.037625	1.173546	-1.202708	0.023152	0.891439	-1.110192	0.289413	6.510096	-8.232737	0.000000	0.000000	26.542928	0.095831	-1.010600	25.694189	-18.211877	78.531297	57.274914	88.547584	2.146392	2.619170	9.794613	-11.555852	43.398697	59.993372	81.336508	-5.181408	3.639217
0.225000	1.350550	-4.194737	92.922216	0.214010	0.849305	0.648993	-1.473111	3.073002	-4.649185	11.664424	0.203583	37.279909	-3.696665	0.000000	-3.385916	-2.611583	20.562584	2.862135	0.049954	40.104705	-1.680193	0.000000	0.037062	0.583568	-1.536999	0.068827	0.776146	-1.633061	0.060888	1.418888	-1.633061	0.042358	1.418888	-1.344874	0.034415	1.190013	-1.248812	0.021177	0.903948	-1.152749	0.264727	6.601443	-8.548327	0.000000	0.000000	26.560616	0.176046	-0.963802	25.237346	-18.147063	77.702596	57.360173	88.831287	3.122030	2.971999	8.743734	-11.465172	42.113986	60.472012	81.495631	-5.368483	3.946929
0.250000	1.503333	-4.030947	93.246574	0.214100	0.849357	0.647772	-1.853927	3.312230	-5.066949	11.349933	0.198094	37.307579	-3.454793	0.000000	-3.647898	-2.887146	20.380826	2.808125	0.049011	40.123280	-1.174325	0.000000	0.034771	0.591414	-1.588022	0.064572	0.786580	-1.687273	0.057124	1.437963	-1.687273	0.039739	1.437963	-1.389519	0.032288	1.206011	-1.290268	0.019868	0.916100	-1.191016	0.248362	6.690189	-8.832102	0.000000	0.000000	26.592161	0.208797	-0.938442	24.764284	-18.106103	76.898367	57.469022	88.951131	4.090891	3.299445	7.709815	-11.405250	40.945997	60.924397	81.804749	-5.513580	4.143904
0.275000	1.653909	-3.916723	93.716163	0.213972	0.849362	0.646825	-2.171929	3.561321	-5.528640	11.039886	0.192682	37.233546	-3.403476	0.000000	-3.802282	-3.155727	20.316375	2.791293	0.048717	40.139583	-0.654788	0.000000	0.037189	0.599138	-1.659169	0.069064	0.796853	-1.762867	0.061098	1.456743	-1.762867	0.042503	1.456743	-1.451773	0.034534	1.221762	-1.348075	0.021250	0.928064	-1.244377	0.265637	6.777566	-9.227802	0.000000	0.000000	26.682480	0.155244	-1.006493	24.311633	-18.058576	76.256981	57.607654	88.515545	4.518316	3.154194	6.650590	-11.374630	39.929157	61.193614	82.144624	-5.777101	3.738213
0.300000	1.773166	-3.836686	94.246166	0.213743	0.849326	0.646131	-2.433753	3.774446	-6.052966	10.763911	0.187866	37.140228	-3.410685	0.000000	-3.908736	-3.391500	20.566671	2.710741	0.047311	40.082298	-0.399669	0.000000	0.043425	0.604060	-1.732795	0.080645	0.803400	-1.841095	0.071344	1.468711	-1.841095	0.049631	1.468711	-1.516196	0.040325	1.231799	-1.407896	0.024813	0.935689	-1.299596	0.310183	6.833246	-9.637286	0.000000	0.000000	26.784572	0.043373	-1.069810	23.863828	-17.962076	75.685195	57.722454	87.144859	4.931217	2.967524	5.835253	-11.397433	39.319552	61.250545	82.643092	-5.866295	3.054313
0.325000	1.866278	-3.784137	94.791164	0.213437	0.849285	0.645741	-2.644134	3.949986	-6.617394	10.515729	0.183534	37.040168	-3.413947	0.000000	-3.975057	-3.591014	21.087812	2.571685	0.044884	39.957700	-0.418412	0.000000	0.051479	0.607750	-1.796721	0.095601	0.808308	-1.909017	0.084574	1.477684	-1.909017	0.058835	1.477684	-1.572131	0.047803	1.239325	-1.459836	0.029415	0.941405	-1.347541	0.367707	6.874995	-9.992826	0.000000	0.000000	26.898135	-0.161490	-1.141734	23.423541	-17.843562	75.165307	57.825830	84.888649	5.396081	2.744155	5.283532	-11.443284	39.030357	61.077518	83.319195	-5.891465	2.080648
0.350000	1.896545	-3.770699	95.412288	0.213030	0.849233	0.645678	-2.787622	4.064048	-7.176771	10.302950	0.179820	36.933927	-3.571420	0.000000	-3.969605	-3.719798	21.723359	2.392218	0.041752	39.834940	-0.425597	0.000000	0.063761	0.604359	-1.865988	0.118411	0.803797	-1.982612	0.104754	1.469438	-1.982612	0.072873	1.469438	-1.632740	0.059209	1.232409	-1.516115	0.036433	0.936152	-1.399491	0.455442	6.836628	-10.378066	0.000000	0.000000	27.018805	-0.344256	-1.135589	22.979514	-17.670793	74.761591	57.896497	82.342748	5.450808	2.311947	4.952469	-11.559128	38.860017	60.734440	84.079196	-5.869007	0.795607
0.375000	1.866732	-3.790968	96.062276	0.212549	0.849203	0.645959	-2.867811	4.115440	-7.661976	10.121521	0.176654	36.821493	-3.881194	0.000000	-3.903856	-3.770364	22.637093	2.175577	0.037971	39.661577	-0.718941	0.000000	0.078677	0.595338	-1.928818	0.146111	0.791800	-2.049369	0.129258	1.447505	-2.049369	0.089920	1.447505	-1.687716	0.073059	1.214013	-1.567164	0.044956	0.922179	-1.446613	0.561980	6.734582	-10.727506	0.000000	0.000000	27.144633	-0.518244	-1.009864	22.506827	-17.488259	74.440522	57.933610	79.752282	5.032804	1.714550	4.851394	-11.755611	38.768826	60.283593	84.847276	-6.000753	-0.782852
